# xmcd CD database file
#
# Track frame offsets:
#	150
#	20390
#	43712
#	66740
#	84733
#	109503
#	131657
#	152694
#	174017
#	192746
#	215410
#	242523
#	248643
#
# Disc length: 3659 seconds
#
# Revision: 2
# Processed by: cddbd v1.5.1PL0 Copyright (c) Steve Scherf et al.
# Submitted via: CDex 1.51
#
DISCID=af0e490d
DTITLE=野川さくら - PoTeChi
DYEAR=2005
DGENRE=
TTITLE0=三鷹市上連雀
TTITLE1=ヤダ！！
TTITLE2=まふゆの花火
TTITLE3=君色パレット
TTITLE4=I'm Not In Love
TTITLE5=アカシア
TTITLE6=正しい恋愛
TTITLE7=涙のティアラ
TTITLE8=Just a Boyfriend
TTITLE9=SA・YO・NA・RA
TTITLE10=Joyeux Noel〜聖なる夜の贈りもの〜
TTITLE11=PoTeChi
TTITLE12=遙か
EXTD=YEAR: 2005
EXTT0=
EXTT1=
EXTT2=
EXTT3=
EXTT4=
EXTT5=
EXTT6=
EXTT7=
EXTT8=
EXTT9=
EXTT10=
EXTT11=
EXTT12=
PLAYORDER=
